<?xml version="1.0" encoding="utf-8"?>
<!-- Generator: Adobe Illustrator 21.0.0, SVG Export Plug-In . SVG Version: 6.00 Build 0)  -->
<svg version="1.1" id="Capa_1" xmlns="http://www.w3.org/2000/svg" xmlns:xlink="http://www.w3.org/1999/xlink" x="0px" y="0px"
	 viewBox="0 0 21.9 21.9" style="enable-background:new 0 0 21.9 21.9;" xml:space="preserve">
<style type="text/css">
	.st0{fill:#B5E2CA;}
	.st1{fill:#FFFFFF;stroke:#B5E2CA;stroke-miterlimit:10;}
	.st2{fill:#EAE9E8;}
	.st3{fill:#79838E;}
	.st4{fill:#34AA5D;}
	.st5{fill:#7AC943;}
	.st6{fill:#006663;}
	.st7{fill:#C19B91;}
	.st8{fill:#996868;}
	.st9{fill:#FFFFFF;}
	.st10{fill:#999999;}
	.st11{fill:#CCCCCC;}
	.st12{fill:#32353A;}
	.st13{fill:#F7CFC9;}
	.st14{fill:#404349;}
	.st15{fill:#474B51;}
	.st16{fill:#CC9B9B;}
	.st17{fill:#525963;}
	.st18{fill:#87A5C6;}
	.st19{fill:#99D1FF;}
	.st20{fill:#FFC533;}
	.st21{fill:#FFFC99;}
	.st22{fill:#ED1C24;}
	.st23{fill:#0071BC;}
	.st24{fill:#C1272D;}
	.st25{fill:#0070CC;}
	.st26{fill:#B3B3B3;}
	.st27{fill:#39B54A;}
</style>
<g>
	<rect x="9.8" y="4.1" class="st9" width="12.2" height="1.3"/>
	<rect x="9.8" y="5.3" class="st24" width="12.2" height="1.3"/>
	<rect x="9.8" y="6.6" class="st9" width="12.2" height="1.3"/>
	<rect x="9.8" y="7.8" class="st24" width="12.2" height="1.3"/>
	<rect x="9.8" y="9.1" class="st9" width="12.2" height="1.3"/>
	<rect x="9.8" y="10.4" class="st24" width="12.2" height="1.3"/>
	<rect x="0" y="11.6" class="st9" width="21.9" height="1.3"/>
	<rect x="0" y="12.9" class="st24" width="21.9" height="1.3"/>
	<rect x="0" y="14.1" class="st9" width="21.9" height="1.3"/>
	<rect x="0" y="15.4" class="st24" width="21.9" height="1.3"/>
	<rect x="9.8" y="2.8" class="st24" width="12.2" height="1.3"/>
	<rect x="0" y="16.7" class="st9" width="21.9" height="1.3"/>
	<rect x="0" y="17.9" class="st24" width="21.9" height="1.3"/>
	<g>
		<rect x="0" y="2.8" class="st25" width="9.8" height="8.8"/>
		<g>
			<g>
				<polygon class="st9" points="0.8,4.1 0.6,4.3 0.7,4 0.4,3.8 0.7,3.8 0.8,3.4 1,3.8 1.3,3.8 1,4 1.1,4.3 				"/>
				<polygon class="st9" points="2.4,4.1 2.1,4.3 2.2,4 2,3.8 2.3,3.8 2.4,3.4 2.5,3.8 2.9,3.8 2.6,4 2.7,4.3 				"/>
				<polygon class="st9" points="4,4.1 3.7,4.3 3.8,4 3.5,3.8 3.9,3.8 4,3.4 4.1,3.8 4.5,3.8 4.2,4 4.3,4.3 				"/>
				<polygon class="st9" points="5.6,4.1 5.3,4.3 5.4,4 5.1,3.8 5.5,3.8 5.6,3.4 5.7,3.8 6,3.8 5.8,4 5.9,4.3 				"/>
				<polygon class="st9" points="7.2,4.1 6.9,4.3 7,4 6.7,3.8 7,3.8 7.2,3.4 7.3,3.8 7.6,3.8 7.3,4 7.4,4.3 				"/>
				<polygon class="st9" points="8.7,4.1 8.4,4.3 8.5,4 8.3,3.8 8.6,3.8 8.7,3.4 8.8,3.8 9.2,3.8 8.9,4 9,4.3 				"/>
				<polygon class="st9" points="1.6,5.1 1.4,5.3 1.5,5 1.2,4.8 1.5,4.8 1.6,4.4 1.8,4.8 2.1,4.8 1.8,5 1.9,5.3 				"/>
				<polygon class="st9" points="3.2,5.1 2.9,5.3 3,5 2.8,4.8 3.1,4.8 3.2,4.4 3.3,4.8 3.7,4.8 3.4,5 3.5,5.3 				"/>
				<polygon class="st9" points="4.8,5.1 4.5,5.3 4.6,5 4.3,4.8 4.7,4.8 4.8,4.4 4.9,4.8 5.3,4.8 5,5 5.1,5.3 				"/>
				<polygon class="st9" points="6.4,5.1 6.1,5.3 6.2,5 5.9,4.8 6.3,4.8 6.4,4.4 6.5,4.8 6.8,4.8 6.6,5 6.7,5.3 				"/>
				<polygon class="st9" points="8,5.1 7.7,5.3 7.8,5 7.5,4.8 7.8,4.8 8,4.4 8.1,4.8 8.4,4.8 8.1,5 8.3,5.3 				"/>
			</g>
			<g>
				<polygon class="st9" points="0.9,6 0.6,6.2 0.7,5.9 0.4,5.7 0.8,5.7 0.9,5.3 1,5.7 1.4,5.7 1.1,5.9 1.2,6.2 				"/>
				<polygon class="st9" points="2.5,6 2.2,6.2 2.3,5.9 2,5.7 2.4,5.7 2.5,5.3 2.6,5.7 2.9,5.7 2.7,5.9 2.8,6.2 				"/>
				<polygon class="st9" points="4,6 3.8,6.2 3.9,5.9 3.6,5.7 3.9,5.7 4,5.3 4.2,5.7 4.5,5.7 4.2,5.9 4.3,6.2 				"/>
				<polygon class="st9" points="5.6,6 5.3,6.2 5.4,5.9 5.2,5.7 5.5,5.7 5.6,5.3 5.7,5.7 6.1,5.7 5.8,5.9 5.9,6.2 				"/>
				<polygon class="st9" points="7.2,6 6.9,6.2 7,5.9 6.7,5.7 7.1,5.7 7.2,5.3 7.3,5.7 7.7,5.7 7.4,5.9 7.5,6.2 				"/>
				<polygon class="st9" points="8.8,6 8.5,6.2 8.6,5.9 8.3,5.7 8.7,5.7 8.8,5.3 8.9,5.7 9.2,5.7 9,5.9 9.1,6.2 				"/>
				<polygon class="st9" points="1.7,7 1.4,7.2 1.5,6.9 1.2,6.7 1.6,6.6 1.7,6.3 1.8,6.6 2.2,6.7 1.9,6.9 2,7.2 				"/>
				<polygon class="st9" points="3.3,7 3,7.2 3.1,6.9 2.8,6.7 3.2,6.6 3.3,6.3 3.4,6.6 3.7,6.7 3.5,6.9 3.6,7.2 				"/>
				<polygon class="st9" points="4.9,7 4.6,7.2 4.7,6.9 4.4,6.7 4.7,6.6 4.9,6.3 5,6.6 5.3,6.7 5,6.9 5.1,7.2 				"/>
				<polygon class="st9" points="6.4,7 6.1,7.2 6.2,6.9 6,6.7 6.3,6.6 6.4,6.3 6.5,6.6 6.9,6.7 6.6,6.9 6.7,7.2 				"/>
				<polygon class="st9" points="8,7 7.7,7.2 7.8,6.9 7.5,6.7 7.9,6.6 8,6.3 8.1,6.6 8.5,6.7 8.2,6.9 8.3,7.2 				"/>
			</g>
			<g>
				<polygon class="st9" points="1,7.9 0.7,8.1 0.8,7.8 0.5,7.5 0.9,7.5 1,7.2 1.1,7.5 1.5,7.5 1.2,7.8 1.3,8.1 				"/>
				<polygon class="st9" points="2.6,7.9 2.3,8.1 2.4,7.8 2.1,7.5 2.5,7.5 2.6,7.2 2.7,7.5 3,7.5 2.8,7.8 2.9,8.1 				"/>
				<polygon class="st9" points="4.1,7.9 3.9,8.1 4,7.8 3.7,7.5 4,7.5 4.1,7.2 4.3,7.5 4.6,7.5 4.3,7.8 4.4,8.1 				"/>
				<polygon class="st9" points="5.7,7.9 5.4,8.1 5.5,7.8 5.3,7.5 5.6,7.5 5.7,7.2 5.8,7.5 6.2,7.5 5.9,7.8 6,8.1 				"/>
				<polygon class="st9" points="7.3,7.9 7,8.1 7.1,7.8 6.8,7.5 7.2,7.5 7.3,7.2 7.4,7.5 7.8,7.5 7.5,7.8 7.6,8.1 				"/>
				<polygon class="st9" points="8.9,7.9 8.6,8.1 8.7,7.8 8.4,7.5 8.8,7.5 8.9,7.2 9,7.5 9.3,7.5 9.1,7.8 9.2,8.1 				"/>
				<polygon class="st9" points="1.8,8.9 1.5,9.1 1.6,8.7 1.3,8.5 1.7,8.5 1.8,8.2 1.9,8.5 2.3,8.5 2,8.7 2.1,9.1 				"/>
				<polygon class="st9" points="3.4,8.9 3.1,9.1 3.2,8.7 2.9,8.5 3.3,8.5 3.4,8.2 3.5,8.5 3.8,8.5 3.6,8.7 3.7,9.1 				"/>
				<polygon class="st9" points="4.9,8.9 4.7,9.1 4.8,8.7 4.5,8.5 4.8,8.5 4.9,8.2 5.1,8.5 5.4,8.5 5.1,8.7 5.2,9.1 				"/>
				<polygon class="st9" points="6.5,8.9 6.2,9.1 6.3,8.7 6.1,8.5 6.4,8.5 6.5,8.2 6.6,8.5 7,8.5 6.7,8.7 6.8,9.1 				"/>
				<polygon class="st9" points="8.1,8.9 7.8,9.1 7.9,8.7 7.6,8.5 8,8.5 8.1,8.2 8.2,8.5 8.6,8.5 8.3,8.7 8.4,9.1 				"/>
			</g>
			<g>
				<polygon class="st9" points="1,9.8 0.7,10 0.8,9.6 0.6,9.4 0.9,9.4 1,9.1 1.2,9.4 1.5,9.4 1.2,9.6 1.3,10 				"/>
				<polygon class="st9" points="2.6,9.8 2.3,10 2.4,9.6 2.1,9.4 2.5,9.4 2.6,9.1 2.7,9.4 3.1,9.4 2.8,9.6 2.9,10 				"/>
				<polygon class="st9" points="4.2,9.8 3.9,10 4,9.6 3.7,9.4 4.1,9.4 4.2,9.1 4.3,9.4 4.7,9.4 4.4,9.6 4.5,10 				"/>
				<polygon class="st9" points="5.8,9.8 5.5,10 5.6,9.6 5.3,9.4 5.6,9.4 5.8,9.1 5.9,9.4 6.2,9.4 6,9.6 6.1,10 				"/>
				<polygon class="st9" points="7.3,9.8 7.1,10 7.2,9.6 6.9,9.4 7.2,9.4 7.3,9.1 7.5,9.4 7.8,9.4 7.5,9.6 7.6,10 				"/>
				<polygon class="st9" points="8.9,9.8 8.6,10 8.7,9.6 8.4,9.4 8.8,9.4 8.9,9.1 9,9.4 9.4,9.4 9.1,9.6 9.2,10 				"/>
				<polygon class="st9" points="1.8,10.8 1.5,11 1.6,10.6 1.4,10.4 1.7,10.4 1.8,10.1 1.9,10.4 2.3,10.4 2,10.6 2.1,11 				"/>
				<polygon class="st9" points="3.4,10.8 3.1,11 3.2,10.6 2.9,10.4 3.3,10.4 3.4,10.1 3.5,10.4 3.9,10.4 3.6,10.6 3.7,11 				"/>
				<polygon class="st9" points="5,10.8 4.7,11 4.8,10.6 4.5,10.4 4.9,10.4 5,10.1 5.1,10.4 5.5,10.4 5.2,10.6 5.3,11 				"/>
				<polygon class="st9" points="6.6,10.8 6.3,11 6.4,10.6 6.1,10.4 6.5,10.4 6.6,10.1 6.7,10.4 7,10.4 6.8,10.6 6.9,11 				"/>
				<polygon class="st9" points="8.2,10.8 7.9,11 8,10.6 7.7,10.4 8,10.4 8.2,10.1 8.3,10.4 8.6,10.4 8.3,10.6 8.4,11 				"/>
			</g>
		</g>
	</g>
</g>
</svg>
