<?xml version="1.0" encoding="utf-8"?>
<!-- Generator: Adobe Illustrator 21.0.0, SVG Export Plug-In . SVG Version: 6.00 Build 0)  -->
<svg version="1.1" id="Capa_1" xmlns="http://www.w3.org/2000/svg" xmlns:xlink="http://www.w3.org/1999/xlink" x="0px" y="0px"
	 viewBox="0 0 171 170.5" style="enable-background:new 0 0 171 170.5;" xml:space="preserve">
<style type="text/css">
	.st0{fill:#B5E2CA;}
	.st1{fill:#FFFFFF;stroke:#B5E2CA;stroke-miterlimit:10;}
	.st2{fill:#EAE9E8;}
	.st3{fill:#79838E;}
	.st4{fill:#34AA5D;}
	.st5{fill:#7AC943;}
	.st6{fill:#006663;}
	.st7{fill:#C19B91;}
	.st8{fill:#996868;}
	.st9{fill:#FFFFFF;}
	.st10{fill:#999999;}
	.st11{fill:#CCCCCC;}
	.st12{fill:#32353A;}
	.st13{fill:#F7CFC9;}
	.st14{fill:#404349;}
	.st15{fill:#474B51;}
	.st16{fill:#CC9B9B;}
	.st17{fill:#525963;}
	.st18{fill:#87A5C6;}
	.st19{fill:#99D1FF;}
	.st20{fill:#FFC533;}
	.st21{fill:#FFFC99;}
	.st22{fill:#ED1C24;}
	.st23{fill:#0071BC;}
	.st24{fill:#C1272D;}
	.st25{fill:#0070CC;}
	.st26{fill:#B3B3B3;}
	.st27{fill:#39B54A;}
</style>
<g>
	<path class="st0" d="M159,107.5L114.3,161c-0.6,0.8-2,1.1-3,0.8l-92.5-29.1c-1-0.3-1.3-1.2-0.7-2l44.7-53.4c0.6-0.8,2-1.1,3-0.8
		l92.5,29.1C159.3,105.9,159.7,106.7,159,107.5z"/>
	<g>
		<path class="st1" d="M153.1,78.1l-44.7,53.4c-0.6,0.8-2,1.1-3,0.8l-92.5-29.1c-1-0.3-1.3-1.2-0.7-2l44.7-53.4c0.6-0.8,2-1.1,3-0.8
			l92.5,29.1C153.4,76.5,153.7,77.3,153.1,78.1z"/>
		<polygon class="st19" points="93.8,65.7 57.4,109.3 24.3,99 60.8,55.4 		"/>
		<path class="st3" d="M102.5,69.5l-35,41.9c-0.4,0.5-1.3,0.7-1.9,0.5l0,0c-0.7-0.2-0.8-0.8-0.4-1.3l35-41.9
			c0.4-0.5,1.3-0.7,1.9-0.5l0,0C102.7,68.5,102.9,69.1,102.5,69.5z"/>
		<path class="st3" d="M89.6,93.1l-16.8,20c-0.4,0.5-1.3,0.7-1.9,0.5h0c-0.7-0.2-0.8-0.8-0.4-1.3l16.8-20c0.4-0.5,1.3-0.7,1.9-0.5
			l0,0C89.8,92,90,92.6,89.6,93.1z"/>
		<g>
			<polygon class="st20" points="59.2,75 71.1,84.4 55.2,94.3 43.3,84.8 			"/>
			<polygon class="st20" points="48.8,77.9 68.4,77.7 65.6,91.3 46,91.6 			"/>
			<path class="st21" d="M52.3,80.7c3.7-2.3,8.8-2.4,11.5-0.3c2.7,2.1,2,5.7-1.7,8c-3.7,2.3-8.8,2.4-11.5,0.3
				C47.9,86.6,48.6,83,52.3,80.7z"/>
		</g>
		<path class="st9" d="M71.5,65.6c-0.2-0.1-0.5-0.3-0.7-0.3c-1.7-0.5-3.9,0.1-4.9,1.3c-0.2,0.2-0.3,0.4-0.4,0.6
			c-2.5,0.2-5,1.3-6.4,3c-2.1,2.5-1.1,5.4,2.3,6.4c-2.1,2.5-1.1,5.4,2.3,6.4c0,0,1.7-2,3.8-4.5c1.8-2.2,3.4-4,3.7-4.4
			c0-0.1,0.1-0.1,0.1-0.1c0.4-0.4,1.9-2.2,3.7-4.4c2.1-2.5,3.8-4.5,3.8-4.5C76.4,64.3,73.6,64.6,71.5,65.6z"/>
		<path class="st9" d="M60.6,94.4c-0.1-0.1-0.3-0.2-0.4-0.2c-1-0.3-2.3,0-3,0.8c-0.1,0.1-0.2,0.2-0.2,0.4c-1.5,0.1-3,0.8-3.9,1.8
			c-1.3,1.5-0.6,3.2,1.4,3.9c-1.3,1.5-0.6,3.2,1.4,3.9c0,0,1-1.2,2.3-2.7c1.1-1.3,2-2.4,2.2-2.7c0,0,0-0.1,0-0.1
			c0.2-0.3,1.1-1.3,2.2-2.7c1.3-1.5,2.3-2.7,2.3-2.7C63.6,93.6,61.9,93.8,60.6,94.4z"/>
		<path class="st3" d="M81.4,113.4c0.6-0.8,2-1.1,3-0.8c1,0.3,1.3,1.2,0.7,2c-0.6,0.8-2,1.1-3,0.8C81.1,115,80.8,114.1,81.4,113.4
			 M79.5,112.8c-1.3,1.5-0.7,3.3,1.4,3.9c2,0.6,4.7-0.1,6-1.6c1.3-1.5,0.7-3.3-1.4-3.9C83.5,110.5,80.8,111.3,79.5,112.8L79.5,112.8
			z"/>
		<path class="st3" d="M96.3,100.1l-7,8.4c-0.4,0.5-1.3,0.7-1.9,0.5h0c-0.7-0.2-0.8-0.8-0.4-1.3l7-8.4c0.4-0.5,1.3-0.7,1.9-0.5l0,0
			C96.5,99.1,96.7,99.7,96.3,100.1z"/>
		<path class="st3" d="M91.2,116.5c0.6-0.8,2-1.1,3-0.8c1,0.3,1.3,1.2,0.7,2c-0.6,0.8-2,1.1-3,0.8S90.5,117.2,91.2,116.5
			 M89.3,115.9c-1.3,1.5-0.7,3.3,1.4,3.9c2,0.6,4.7-0.1,6-1.6c1.3-1.5,0.7-3.3-1.4-3.9C93.3,113.6,90.6,114.3,89.3,115.9L89.3,115.9
			z"/>
		<path class="st3" d="M106.1,103.2l-7,8.4c-0.4,0.5-1.3,0.7-1.9,0.5l0,0c-0.7-0.2-0.8-0.8-0.4-1.3l7-8.4c0.4-0.5,1.3-0.7,1.9-0.5
			l0,0C106.3,102.2,106.5,102.7,106.1,103.2z"/>
		<path class="st3" d="M101,119.5c0.6-0.8,2-1.1,3-0.8c1,0.3,1.3,1.2,0.7,2s-2,1.1-3,0.8C100.7,121.2,100.3,120.3,101,119.5
			 M99.1,118.9c-1.3,1.5-0.7,3.3,1.4,3.9c2,0.6,4.7-0.1,6-1.6s0.7-3.3-1.4-3.9C103.1,116.7,100.4,117.4,99.1,118.9L99.1,118.9z"/>
		<path class="st3" d="M115.9,106.3l-7,8.4c-0.4,0.5-1.3,0.7-1.9,0.5l0,0c-0.7-0.2-0.8-0.8-0.4-1.3l7-8.4c0.4-0.5,1.3-0.7,1.9-0.5h0
			C116.1,105.2,116.3,105.8,115.9,106.3z"/>
	</g>
</g>
</svg>
