<?xml version="1.0" encoding="utf-8"?>
<!-- Generator: Adobe Illustrator 21.0.0, SVG Export Plug-In . SVG Version: 6.00 Build 0)  -->
<svg version="1.1" id="Capa_1" xmlns="http://www.w3.org/2000/svg" xmlns:xlink="http://www.w3.org/1999/xlink" x="0px" y="0px"
	 viewBox="0 0 170 170" style="enable-background:new 0 0 170 170;" xml:space="preserve">
<style type="text/css">
	.st0{fill:#B5E2CA;}
	.st1{fill:#FFFFFF;stroke:#B5E2CA;stroke-miterlimit:10;}
	.st2{fill:#EAE9E8;}
	.st3{fill:#79838E;}
	.st4{fill:#34AA5D;}
	.st5{fill:#7AC943;}
	.st6{fill:#006663;}
	.st7{fill:#C19B91;}
	.st8{fill:#996868;}
	.st9{fill:#FFFFFF;}
	.st10{fill:#999999;}
	.st11{fill:#CCCCCC;}
	.st12{fill:#32353A;}
	.st13{fill:#F7CFC9;}
	.st14{fill:#404349;}
	.st15{fill:#474B51;}
	.st16{fill:#CC9B9B;}
	.st17{fill:#525963;}
	.st18{fill:#87A5C6;}
	.st19{fill:#99D1FF;}
	.st20{fill:#FFC533;}
	.st21{fill:#FFFC99;}
	.st22{fill:#ED1C24;}
	.st23{fill:#0071BC;}
	.st24{fill:#C1272D;}
	.st25{fill:#0070CC;}
	.st26{fill:#B3B3B3;}
	.st27{fill:#39B54A;}
</style>
<g>
	<g>
		<path class="st0" d="M158.4,107.5L113.7,161c-0.6,0.8-2,1.1-3,0.8l-92.5-29.1c-1-0.3-1.3-1.2-0.7-2l44.7-53.4c0.6-0.8,2-1.1,3-0.8
			l92.5,29.1C158.8,105.9,159.1,106.7,158.4,107.5z"/>
		<g>
			<path class="st1" d="M152.5,78.1l-44.7,53.4c-0.6,0.8-2,1.1-3,0.8l-92.5-29.1c-1-0.3-1.3-1.2-0.7-2l44.7-53.4
				c0.6-0.8,2-1.1,3-0.8l92.5,29.1C152.8,76.5,153.2,77.3,152.5,78.1z"/>
			<polygon class="st2" points="93.3,65.7 75,87.5 42,77.2 60.2,55.4 			"/>
			<path class="st3" d="M81.6,95.2l-15.9,17.9c-0.4,0.4-1.2,0.6-1.9,0.4h0c-0.6-0.2-0.8-0.7-0.5-1.1l15.9-17.9
				c0.4-0.4,1.2-0.6,1.9-0.4l0,0C81.8,94.3,82,94.8,81.6,95.2z"/>
		</g>
	</g>
	<g>
		<path class="st4" d="M53.5,85.3c9.4,2.4,14.8,8.5,12.1,13.8c-2.7,5.2-12.6,7.5-22,5.2s-14.8-8.5-12.1-13.8
			C34.2,85.3,44,83,53.5,85.3z"/>
		<path class="st5" d="M53.5,85.3c0,0-2.2,4.2-5,9.5l0,0c-9.4-2.4-17-4.3-17-4.3C34.2,85.3,44,83,53.5,85.3z"/>
	</g>
	<path class="st3" d="M88.8,97.6L73,115.5c-0.4,0.4-1.2,0.6-1.9,0.4l0,0c-0.6-0.2-0.8-0.7-0.5-1.1l15.9-17.9
		c0.4-0.4,1.2-0.6,1.9-0.4l0,0C89,96.6,89.2,97.1,88.8,97.6z"/>
	<path class="st3" d="M96.2,99.9l-15.9,17.9c-0.4,0.4-1.2,0.6-1.9,0.4l0,0c-0.6-0.2-0.8-0.7-0.5-1.1l15.9-17.9
		c0.4-0.4,1.2-0.6,1.9-0.4h0C96.3,98.9,96.5,99.5,96.2,99.9z"/>
	<path class="st3" d="M103.2,102.2l-15.9,17.9c-0.4,0.4-1.2,0.6-1.9,0.4l0,0c-0.6-0.2-0.8-0.7-0.5-1.1l15.9-17.9
		c0.4-0.4,1.2-0.6,1.9-0.4l0,0C103.4,101.2,103.6,101.8,103.2,102.2z"/>
	<path class="st3" d="M110.4,104.5l-15.9,17.9c-0.4,0.4-1.2,0.6-1.9,0.4l0,0c-0.6-0.2-0.8-0.7-0.5-1.1l15.9-17.9
		c0.4-0.4,1.2-0.6,1.9-0.4l0,0C110.5,103.6,110.7,104.1,110.4,104.5z"/>
	<path class="st3" d="M117.6,106.8l-15.9,17.9c-0.4,0.4-1.2,0.6-1.9,0.4l0,0c-0.6-0.2-0.8-0.7-0.5-1.1l15.9-17.9
		c0.4-0.4,1.2-0.6,1.9-0.4v0C117.8,105.9,118,106.4,117.6,106.8z"/>
	<polygon class="st4" points="127.9,97.1 126.3,98.9 93.3,88.5 94.8,86.8 	"/>
	<polygon class="st5" points="132,92.4 130.5,94.2 113.3,89 114.8,87.2 	"/>
	<polygon class="st6" points="135.6,88 134,89.8 101,79.4 102.5,77.6 	"/>
	<polygon class="st4" points="139.7,83.3 138.2,85.1 121,79.9 122.5,78.1 	"/>
</g>
</svg>
