<?xml version="1.0" encoding="utf-8"?>
<!-- Generator: Adobe Illustrator 21.0.0, SVG Export Plug-In . SVG Version: 6.00 Build 0)  -->
<svg version="1.1" id="Capa_1" xmlns="http://www.w3.org/2000/svg" xmlns:xlink="http://www.w3.org/1999/xlink" x="0px" y="0px"
	 viewBox="0 0 170 170" style="enable-background:new 0 0 170 170;" xml:space="preserve">
<style type="text/css">
	.st0{fill:#B5E2CA;}
	.st1{fill:#FFFFFF;stroke:#B5E2CA;stroke-miterlimit:10;}
	.st2{fill:#EAE9E8;}
	.st3{fill:#79838E;}
	.st4{fill:#34AA5D;}
	.st5{fill:#7AC943;}
	.st6{fill:#006663;}
	.st7{fill:#C19B91;}
	.st8{fill:#996868;}
	.st9{fill:#FFFFFF;}
	.st10{font-family:'SFUIDisplay-Bold';}
	.st11{font-size:5.6237px;}
	.st12{fill:#999999;}
	.st13{fill:#CCCCCC;}
	.st14{fill:#32353A;}
	.st15{fill:#F7CFC9;}
	.st16{fill:#404349;}
	.st17{fill:#474B51;}
	.st18{fill:#CC9B9B;}
	.st19{fill:#525963;}
	.st20{fill:#87A5C6;}
	.st21{fill:#99D1FF;}
	.st22{fill:#FFC533;}
	.st23{fill:#FFFC99;}
	.st24{fill:#ED1C24;}
	.st25{fill:#0071BC;}
	.st26{fill:#C1272D;}
	.st27{fill:#0070CC;}
	.st28{fill:#B3B3B3;}
	.st29{fill:#39B54A;}
</style>
<g>
	<path class="st0" d="M155.6,107l-44.7,53.4c-0.6,0.8-2,1.1-3,0.8l-92.5-29.1c-1-0.3-1.3-1.2-0.7-2l44.7-53.4c0.6-0.8,2-1.1,3-0.8
		l92.5,29.1C156,105.4,156.3,106.2,155.6,107z"/>
	<g>
		<path class="st7" d="M59.1,70.2l-41.2,51.1c-0.5,0.5-3.5-0.4-3.5-1.1v-65c0-0.7,0.3-1.3,0.8-1.9L58.4,7.2c0.5-0.5,3.5,0.2,3.5,0.9
			l-2,60.2C59.9,69,59.6,69.7,59.1,70.2z"/>
		<path class="st8" d="M61.1,70.2l-43.2,51.1c-0.5,0.5-1.5-0.5-1.5-1.2V55.8c0-0.7,0.3-1.3,0.8-1.9L60.4,7.8
			c0.5-0.5,1.5-0.2,1.5,0.5v60C61.9,69,61.6,69.6,61.1,70.2z"/>
		<path class="st6" d="M59.4,68.7l-39.9,47.5c-0.5,0.5-1.4,0.2-1.4-0.4V56.5c0-0.7,0.3-1.3,0.8-1.9l39.9-42.6
			c0.5-0.5,1.4-0.2,1.4,0.4v54.4C60.2,67.5,59.9,68.2,59.4,68.7z"/>
		<g>
			<polygon class="st5" points="49.4,42.8 44.6,48.5 44.6,54.2 40.5,59.4 40.5,65.7 36.9,70.2 36.9,76.3 32.6,81.6 32.6,88.6 
				49.4,68.4 			"/>
			<text transform="matrix(0.6976 -0.7819 7.395000e-02 0.9973 28.5476 78.9705)" class="st9 st10 st11">12</text>
			<text transform="matrix(0.6976 -0.7819 7.395000e-02 0.9973 34.5416 66.5328)" class="st9 st10 st11">8</text>
			<text transform="matrix(0.6976 -0.7819 7.395000e-02 0.9973 39.7607 54.6703)" class="st9 st10 st11">4</text>
			<text transform="matrix(0.6976 -0.7819 7.395000e-02 0.9973 44.3523 43.4712)" class="st9 st10 st11">1</text>
		</g>
	</g>
	<g>
		<g>
			<g>
				<g>
					<polygon class="st12" points="115.7,70.7 116.6,98.8 117.8,98 117.6,74.3 132.7,79 133,101.4 134.1,100.6 134.6,76.6 					"/>
					<polygon class="st13" points="114.5,70.3 114.8,98.3 116.6,98.8 116.4,73.9 131.5,78.6 131.2,101.2 133,101.6 133.5,76.3 					
						"/>
				</g>
				<polygon class="st7" points="69.1,111.5 99.9,120 141.5,67.2 110.8,60.1 				"/>
				<polygon class="st8" points="69.1,111.5 69.3,113.4 100.1,122.3 106.5,114.1 141.5,69.4 141.5,67.2 99.9,120 				"/>
				<g>
					<polygon class="st12" points="76,115.3 77.5,141 78.6,140.3 78.2,118.6 95.9,123 96.4,146.9 97.5,146 97.7,121.6 					"/>
					<polygon class="st13" points="74.8,115 75.6,140.6 77.5,141 76.9,118.2 94.6,122.7 94.6,146.5 96.4,146.9 96.4,121.2 					"/>
				</g>
			</g>
			<path class="st14" d="M78.1,65.3l-6.4,9.4c0,0-2.3,19.8-1.5,21.5c0.7,1.7,4.3,4.6,4.3,4.6s0.8-3.6,2.5-3.6l2.3,1.6l10.9-13.2
				c0,0-2.4-1.2-0.9-8.2c1.6-7.2,1.3-6.3,1.3-6.3s3.9,5.1,6.5,6.1c0,0,0.5-3.6,2.5-3.2c0,0-5.4-3.4-6.9-9.2c-1.5-6-5.4-4.3-5.4-4.3
				L78.1,65.3z"/>
			<path class="st15" d="M97.2,77.1l6.6,2.2l1.3-2.2l-5.4-3.3C99.7,73.8,97.8,72.8,97.2,77.1z"/>
			<path class="st14" d="M119.1,83.2l-12-7c-0.3-0.2-0.4-0.5-0.2-1l8.2-5.5c0.3-0.2,0.7-0.3,1.1-0.1l11.4,6.2
				c0.2,0.2,0.5,0.9-0.2,1.4l-7,6C119.9,83.4,119.4,83.5,119.1,83.2z"/>
			<path class="st14" d="M127.4,75.5l-11.2-6.3c-0.4-0.2-0.5-0.7-0.4-1.1l3-9.2c0.2-0.7,1-1.1,1.5-0.8l11.4,5.8
				c0.4,0.2,0.5,0.7,0.4,1.1l-3.1,9.6C128.7,75.4,128,75.8,127.4,75.5z"/>
			<path class="st16" d="M127.1,75.5l-11-6.1c-0.4-0.2-0.5-0.6-0.4-1.1l2.9-9.3c0.2-0.7,0.8-1,1.3-0.7l11.3,5.8
				c0.3,0.2,0.5,0.6,0.3,1.1l-3,9.6C128.4,75.4,127.7,75.8,127.1,75.5z"/>
			<path class="st9" d="M127.2,74.9l-10.5-5.8c-0.3-0.2-0.5-0.6-0.4-1l2.7-8.5c0.2-0.6,0.7-0.9,1.3-0.6l10.6,5.3
				c0.3,0.2,0.5,0.6,0.3,1l-2.9,8.9C128,74.9,127.7,75.1,127.2,74.9z"/>
			<path class="st17" d="M119.2,83l-11.9-7c-0.7-0.4-1-0.6,0.8-1.9l7.1-5c0.3-0.1,0.6-0.1,0.9,0l11,6.4c0.6,0.4,0.9,0.8,0.3,1.2
				l-7.1,6.1C119.9,83.1,119.5,83.1,119.2,83z"/>
			<path class="st18" d="M78.1,65.3c0,0,2,3.8,6.1,2.4c0,0,4-2-1.1-5L78.1,65.3z"/>
			<polygon class="st18" points="78.1,65.3 77.3,58.6 84.3,60.1 84.3,65.2 			"/>
			<path class="st15" d="M77.5,59.8L77.5,59.8c0.3,1.1,0.8,2.6,1.3,2.9c1.4,1,4.3,2.6,6.9,1c0,0,1-0.5,1.1-0.7c0.1-0.1,0-3.1,0-5.1
				c0-1-0.3-1.9-1-2.6l0,0l0,0c0.3-0.6,0.3-1.6-0.1-2.2c-0.7-1.2-1-2.8-2.9-3.3c-1.4-0.4-8.2-0.5-6.5,6.9c0,0-1.7,0.7,0,2.9
				C76.6,59.9,77.1,60.1,77.5,59.8z"/>
			<path class="st19" d="M77.7,61.7h-1.1c0,0,0.1-0.3,0-0.8s-3.4-6.5-1.7-7.6c0,0-0.8-1.5,0.9-3c1.7-1.5,7-2.7,9.7-0.8
				c0,0-0.3,1.4-0.6,1.6s-3.5,2.3-5.5,2.6c0,0,0.7,2.4-0.4,3.3L78.6,58l-0.8,0.2c0,0-0.4-2.1-1.3-1.3s-0.4,2.5,1,2.8L77.7,61.7z"/>
			<g>
				<path class="st14" d="M102.1,123.4c0,0-0.1,2.5,0.8,4.6c0,0,0.8,1,2.8,0.7c0,0,0.6-1,1.6,0c0,0,1.5,1.4,6,0.9
					c0,0,1.9-0.7,1.9-1.7c0-0.9-5.8-2.2-9-5.3C106.2,122.7,102.8,122,102.1,123.4z"/>
				<path class="st20" d="M106.7,122.3c0,0-1,2.3-4.6,1.4c-0.2,0-0.4-0.1-0.6-0.2l-0.6-2.3l4.9-6.3L106.7,122.3z"/>
				<path class="st14" d="M110.7,112.2c0,0-0.1,2.2,0.8,4.1c0,0,0.7,0.9,2.5,0.7c0,0,0.6-0.9,1.4,0c0,0,1.4,1.2,5.4,0.8
					c0,0,1.7-0.7,1.7-1.5c0-0.8-5.2-1.9-8.1-4.7C114.4,111.6,111.4,110.9,110.7,112.2z"/>
				<path class="st20" d="M114.9,111.2c0,0-0.9,2-4.2,1.3c-0.2,0-0.4-0.1-0.6-0.2l-0.5-2.7l4.4-5.7L114.9,111.2z"/>
			</g>
		</g>
		<path class="st15" d="M103.8,79.3c0,0,0.9,1.8,1.3,2.1s2.1,1,2.1,1s0.3-0.6-0.4-1l-0.8-0.6c0,0,1.1,0.1,2.1,0.8
			c0,0,0.4,1.3,0.7,1.4c0,0,1.4-1.8,1-2.6c-0.5-0.8-1-1.7-1-1.7l-3.6-1.5L103.8,79.3z"/>
		<path class="st15" d="M88.9,103.7c-1.2-0.5-2-1.5-2-1.5l1.1,0.5c0.7,0.5,1.2-0.2,1.2-0.2s-1.6-1.1-2.2-1.4c-0.5-0.2-2.4-0.1-2.7,0
			v0l-7-4.4c-2.3,0.1-2.8,4.1-2.8,4.1l8.4,2.9l3.6,2.5c0,0,1.2-0.1,2.3-0.1c1.1,0,2-2.5,2-2.5C90.4,103.3,88.9,103.7,88.9,103.7z"/>
	</g>
</g>
</svg>
